<svg width="1957" height="2017" viewBox="0 0 1957 2017" fill="none" xmlns="http://www.w3.org/2000/svg">
<path d="M1380.5 1547.5H806.5V1219.5L818.54 1207.71L486.5 965L904.5 842L790 571L2 222.5H923.27L818.54 5L1192 144.5L1750 5L1606.25 423.5L1889.5 669.5L1823.5 916L1503.5 1030.5L1955 1359L1607.5 1227.75L1503.5 2015.5L1380.5 1547.5Z" fill="#AED9DC"/>
<path d="M1192 842V144.5M1192 842L1462.5 440M1192 842L1503.5 1030.5M1192 842L790 571M1192 842L1028 440M1192 842L1307 530L1462.5 440M1192 842H1462.5M1192 842L818.54 1207.71M1192 842L1260 1096.5M1192 144.5L818.54 5L923.27 222.5M1192 144.5L1750 5M1462.5 440L1750 5M1503.5 1030.5L1823.5 916L1889.5 669.5M1503.5 1030.5L1955 1359L1607.5 1227.75M790 571L904.5 842L486.5 965L818.54 1207.71M790 571L1028 440M790 571L2 222.5H923.27M1028 440L923.27 222.5M1462.5 842L1889.5 669.5M1462.5 842L1606.25 423.5M1380.5 1547.5L1192 1096.5L806.5 1547.5M1380.5 1547.5H806.5M1380.5 1547.5L1260 1096.5M1380.5 1547.5L1503.5 2015.5L1607.5 1227.75M806.5 1547.5V1219.5L818.54 1207.71M1750 5L1606.25 423.5M1889.5 669.5L1606.25 423.5M1260 1096.5L1607.5 1227.75" stroke="black" stroke-width="5" />
</svg>
