<svg width="2014" height="1250" viewBox="0 0 2014 1250" fill="none" xmlns="http://www.w3.org/2000/svg">
<path d="M39.5555 651.021L53.1357 596.916L163.322 583.963L139.378 537.345L236.134 321.596L1877.96 425.732L1655.23 597.128L1413.01 579.557L1425.87 617.642L1814.5 726.732L1905.82 865.335L1739.8 878.523L1591 1108.5L715.603 938.468L138.131 826.346L242.558 726.732L32.7242 678.238L39.5555 651.021Z" fill="#C4C4C4"/>
<path d="M139.378 537.345L449.69 534.363L1368.25 447.018L1413.01 579.557M139.378 537.345L163.322 583.963M139.378 537.345L236.134 321.596L1877.96 425.732L1655.23 597.128L1413.01 579.557M1442.98 668.296L1472.82 756.655L187.267 630.582L163.322 583.963M1442.98 668.296L1566.64 699.333L1520.3 883.948M1442.98 668.296L1425.87 617.642M39.5555 651.021L1507.95 933.135L1520.3 883.948M39.5555 651.021L53.1357 596.916L163.322 583.963M39.5555 651.021L32.7242 678.238L242.558 726.732M1425.87 617.642L1814.5 726.732L1905.82 865.335L1739.8 878.523M1425.87 617.642L1413.01 579.557M1520.3 883.948L1632.66 878.523M1632.66 878.523L1487.54 1014.46L242.558 726.732M1632.66 878.523L1739.8 878.523M242.558 726.732L138.131 826.346L715.603 938.468L1591 1108.5L1739.8 878.523" stroke="black" stroke-width="5"/>
</svg>