<svg width="63" height="64" viewBox="0 0 63 64" fill="none" xmlns="http://www.w3.org/2000/svg">
<path d="M33.5 61C48.6878 61 61 49.5833 61 35.5C61 21.4167 48.6878 10 33.5 10C18.3122 10 6 21.4167 6 35.5C6 49.5833 18.3122 61 33.5 61Z" fill="#5F6995"/>
<path d="M0.208837 64L0 63.9264C3.68075 49.4164 12.8826 38.556 27.3707 31.6247C32.9963 28.9317 39.927 26.3564 46.2182 26.0915C44.7303 24.8554 43.2031 23.8988 41.6238 23.2072C40.0967 22.5303 38.5435 22.4272 37.0425 22.3242C35.8938 22.2506 34.6931 22.1623 33.5314 21.8239C32.3828 21.4854 32.0434 21.2205 31.691 19.9108C31.1689 17.9389 31.704 15.4959 32.2131 13.1414C32.5133 11.7434 32.8005 10.4336 32.8526 9.25637C33.1137 3.94389 31.2994 1.23615 26.7964 0.235456L26.8356 0C31.4691 1.03012 33.3356 3.81145 33.0615 9.27112C33.0092 10.4631 32.7221 11.7875 32.4089 13.2002C31.9129 15.5254 31.3908 17.9241 31.8868 19.8372C32.2131 21.0733 32.5003 21.2793 33.5706 21.5885C34.7191 21.9269 35.8938 22.0004 37.0425 22.0888C38.5565 22.1917 40.1358 22.2948 41.6891 22.9864C43.3597 23.7223 44.9652 24.7376 46.5445 26.0768C50.2383 25.9738 53.6972 26.6802 56.5165 28.6521C59.2966 30.5946 60.5235 33.9793 59.7926 37.7172C59.7796 37.7907 59.7665 37.8643 59.7535 37.9526C59.5707 38.9386 59.2314 40.7634 58.0828 40.6457C56.5818 40.4985 54.8719 37.364 53.6189 35.083C53.2012 34.303 52.8227 33.6408 52.5616 33.2582C50.5125 30.3444 48.5154 28.0487 46.4792 26.3122C40.1489 26.5183 33.1267 29.123 27.449 31.8308C13.0392 38.762 3.86348 49.5783 0.208837 64ZM46.8316 26.327C48.8156 28.0635 50.7473 30.3003 52.7444 33.1405C53.0184 33.5379 53.3839 34.2001 53.8147 34.98C54.9763 37.0991 56.7253 40.2925 58.1219 40.4249C59.0878 40.5132 59.388 38.8356 59.5577 37.9232C59.5707 37.8349 59.5838 37.7466 59.6099 37.673C60.3408 33.994 59.1791 30.7859 56.4382 28.8728C53.6972 26.9892 50.3819 26.2681 46.8316 26.327Z" fill="white"/>
<path d="M10.2064 64L10 63.9263C12.2963 55.1643 15.315 49.2591 20.0882 44.1639C24.3582 39.6134 29.8023 35.8288 35.8398 33.237C38.4843 32.1031 42.9738 30.4095 47.5018 29.7616C45.1281 27.0814 42.2513 24.6074 38.7681 23.4146C37.9425 23.1348 36.8589 23.1054 35.7237 23.0613C33.3757 22.9876 30.7311 22.9139 30.0087 20.3663C29.3637 18.0838 30.099 15.2416 30.8214 12.5026C31.2084 10.9857 31.5826 9.55731 31.6987 8.32029C32.1502 3.35757 30.7957 1.08974 26.8481 0.235619L26.8867 0C30.9117 0.868846 32.3695 3.29866 31.9051 8.34974C31.789 9.61622 31.4149 11.0593 31.0149 12.5761C30.3183 15.2858 29.583 18.0838 30.2022 20.2927C30.8731 22.6783 33.337 22.752 35.7107 22.8256C36.8718 22.855 37.9554 22.8845 38.8198 23.179C42.4062 24.4013 45.3474 26.9636 47.7598 29.7175C52.4427 29.0989 57.1385 29.6291 59.8476 33.0898C61.228 34.8568 61.4087 39.2158 60.1702 41.2628C59.6799 42.0874 58.7511 42.9268 57.1385 42.2347C55.255 41.4248 53.6554 38.7151 52.2492 36.3295C51.7332 35.4607 51.2559 34.6359 50.8173 34.0175C49.8885 32.7069 48.8435 31.3226 47.6695 29.9678C43.1157 30.601 38.5618 32.3093 35.9043 33.4579C29.8926 36.035 24.4744 39.8049 20.2172 44.3405C15.4956 49.4064 12.4898 55.2821 10.2064 64ZM47.9662 29.9384C49.1015 31.2489 50.1077 32.6037 51.0108 33.8702C51.4623 34.5035 51.9396 35.3281 52.4556 36.197C53.7844 38.4501 55.4227 41.248 57.2417 42.0138C58.4157 42.5145 59.3832 42.2052 60.0282 41.1302C61.2151 39.1422 61.0474 34.9452 59.7187 33.2517C57.087 29.8941 52.533 29.3493 47.9662 29.9384Z" fill="white"/>
<path d="M25.1932 64L25 63.9125C29.5726 50.0356 37.2881 41.7328 47.9532 39.2522C48.1207 39.2083 48.4555 39.1354 48.9192 39.0479C48.829 38.902 48.7518 38.7707 48.6745 38.6393C45.8794 34.1158 42.7237 28.9795 38.1382 26.3238C36.6312 25.4483 35.0984 25.3023 33.63 25.1564C32.4836 25.0396 31.2857 24.9229 30.1136 24.4706C28.8642 23.989 27.9883 23.5513 27.4086 22.0046C26.4941 19.5823 27.7178 15.8322 28.9028 12.2134C30.1265 8.4487 31.4017 4.56726 30.2424 2.26174C29.7143 1.21112 28.7354 0.554491 27.2541 0.23347L27.2928 0C28.8513 0.321021 29.8689 1.02143 30.4356 2.145C31.6335 4.53808 30.3583 8.49247 29.1089 12.3009C27.9368 15.8759 26.7389 19.5823 27.6148 21.917C28.1686 23.3762 28.9544 23.7702 30.1909 24.2517C31.3372 24.704 32.5223 24.8208 33.6558 24.9229C35.1499 25.0689 36.7085 25.2293 38.2541 26.1195C42.8783 28.8044 46.0598 33.9553 48.8677 38.508C48.9708 38.6685 49.0738 38.8436 49.1769 39.0187C52.397 38.435 60.5762 37.4866 62.6242 42.4041C63.2939 44.0091 63.0621 45.731 61.9802 47.1317C60.6792 48.8098 58.5668 49.5541 56.8279 48.9266C53.9169 47.8906 51.7143 43.9654 49.9497 40.8135C49.6406 40.2736 49.3572 39.7483 49.0738 39.2667C48.5586 39.3689 48.1979 39.4419 48.0176 39.4857C37.4169 41.9517 29.7401 50.1961 25.1932 64ZM49.2799 39.223C49.5504 39.6754 49.8209 40.1714 50.1043 40.6822C51.856 43.8048 54.0329 47.6863 56.8665 48.6931C58.5281 49.2914 60.5504 48.5764 61.7998 46.9713C62.8174 45.6434 63.0492 44.0091 62.4181 42.4916C60.4344 37.7783 52.5258 38.6539 49.2799 39.223Z" fill="white"/>
<path d="M29.9692 64L29.7692 63.9126C34.1826 52.3569 40.0627 45.5664 47.6495 43.2639C47.5828 43.1473 47.5162 43.0162 47.4495 42.8997C47.0628 42.2001 46.6895 41.5444 46.3428 40.947C46.1161 40.5827 45.9029 40.2038 45.6761 39.8249C42.9561 35.2202 40.1427 30.4551 35.8759 27.6864C34.1159 26.5352 32.4493 26.3312 30.6892 26.1272C29.7159 26.0106 28.7158 25.8795 27.6625 25.588C26.3958 25.2383 25.1291 24.6846 24.4225 22.9359C23.1424 19.8029 25.0491 15.271 26.4492 11.9632C26.7825 11.1908 27.0891 10.4477 27.3158 9.80646C27.3558 9.68994 27.4092 9.55872 27.4625 9.413C28.1825 7.48952 29.8892 2.98675 28.6492 1.10695C28.2225 0.451214 27.4491 0.159773 26.3558 0.247206L26.3425 0.0140515C27.5159 -0.0733806 28.3425 0.247206 28.8225 0.97581C30.1292 2.95761 28.4625 7.38751 27.6625 9.51501C27.6092 9.66074 27.5558 9.79186 27.5159 9.90848C27.2758 10.5497 26.9691 11.2928 26.6358 12.0652C25.2625 15.3293 23.369 19.8175 24.6091 22.8484C25.1558 24.1746 26.0491 24.9031 27.7025 25.3549C28.7425 25.6463 29.7426 25.7629 30.7026 25.8795C32.4892 26.098 34.1693 26.3021 35.9693 27.4824C40.2761 30.2802 43.1027 35.0598 45.8495 39.6938C46.0762 40.0727 46.2894 40.4369 46.5161 40.8158C46.8761 41.4133 47.2362 42.069 47.6362 42.7685C47.7162 42.9142 47.7962 43.0454 47.8762 43.191C48.9562 42.8851 50.0628 42.6519 51.1963 42.5208C52.8496 42.3314 55.423 42.3022 57.743 42.8268C60.6497 43.468 62.4231 44.8377 62.8898 46.7613C63.1965 48.0581 62.8631 49.2822 61.8897 50.2731C60.1697 52.0509 57.0496 52.6192 55.3296 52.0217C52.0496 50.8705 49.6763 46.8778 47.7561 43.468C40.2227 45.7412 34.3693 52.488 29.9692 64ZM47.9962 43.4097C49.8895 46.7758 52.2229 50.6811 55.4096 51.8032C57.0763 52.386 60.0897 51.8323 61.7431 50.1128C62.6497 49.1802 62.9698 48.0436 62.6764 46.8341C61.6364 42.5208 54.0496 42.4333 51.2096 42.7685C50.1162 42.8997 49.0362 43.1182 47.9962 43.4097Z" fill="white"/>
<path d="M18.2103 64L18 63.9266C20.0896 56.8742 23.257 50.936 27.41 46.2442C31.7076 41.4057 37.0566 37.9015 43.3387 35.8488C44.8895 35.3356 46.9267 34.7638 49.1215 34.3826C46.0986 30.1306 42.8524 26.4211 38.5154 24.6323C37.5692 24.2364 36.3206 24.1484 34.9933 24.0605C32.2859 23.8699 29.4865 23.6793 28.7374 20.8348C28.1066 18.4449 29.0397 15.2192 29.9334 12.0962C30.9453 8.56265 31.9836 4.92646 30.7482 2.60985C30.1042 1.3929 28.8951 0.615808 27.042 0.234594L27.0815 0C28.9871 0.395876 30.2488 1.21696 30.9322 2.49255C32.2202 4.89714 31.1556 8.60664 30.1305 12.1842C29.25 15.2779 28.33 18.4742 28.9345 20.7908C29.6443 23.474 32.3647 23.6499 35.0064 23.8405C36.347 23.9286 37.6086 24.0165 38.5943 24.427C43.0233 26.2598 46.3089 30.0426 49.3711 34.3679C50.554 34.1626 51.7762 34.0307 52.9853 33.9867C57.2304 33.8401 60.2663 34.9397 62.0273 37.2417C63.381 39.0158 63.1839 41.699 62.2771 43.4438C61.4097 45.1298 59.964 45.9509 58.4 45.6431C55.8504 45.1445 53.7739 41.6843 52.1047 38.9132C51.6974 38.2387 51.3163 37.6082 50.9745 37.0951C50.4094 36.2593 49.8443 35.4383 49.2791 34.6172C46.9397 35.013 44.8239 35.6289 43.3913 36.0981C31.1556 40.0862 22.4421 49.7337 18.2103 64ZM49.5288 34.5585C50.0808 35.3356 50.6197 36.1273 51.1453 36.9337C51.4871 37.447 51.8682 38.0775 52.2756 38.7518C53.8396 41.347 55.9687 44.8953 58.4263 45.3791C59.9245 45.6724 61.2519 44.91 62.0799 43.2972C62.9342 41.6257 63.1313 39.0451 61.8433 37.359C59.2411 33.928 54.0236 33.8401 49.5288 34.5585Z" fill="white"/>
</svg>
